<svg width="416" height="558" viewBox="0 0 416 558" fill="none" xmlns="http://www.w3.org/2000/svg">
<mask id="mask0_32_98" style="mask-type:alpha" maskUnits="userSpaceOnUse" x="0" y="0" width="416" height="558">
<path fill-rule="evenodd" clip-rule="evenodd" d="M0 9C0 4.02942 4.02942 0 9 0H407C411.971 0 416 4.02942 416 9V549C416 553.971 411.971 558 407 558H9C4.02942 558 0 553.971 0 549V9ZM30 47.5C30 51.6421 26.6421 55 22.5 55C18.3579 55 15 51.6421 15 47.5C15 43.3578 18.3579 40 22.5 40C26.6421 40 30 43.3578 30 47.5ZM22.5 33C26.6421 33 30 29.6422 30 25.5C30 21.3578 26.6421 18 22.5 18C18.3579 18 15 21.3578 15 25.5C15 29.6422 18.3579 33 22.5 33ZM30 69.5C30 73.6421 26.6421 77 22.5 77C18.3579 77 15 73.6421 15 69.5C15 65.3579 18.3579 62 22.5 62C26.6421 62 30 65.3579 30 69.5ZM22.5 99C26.6421 99 30 95.6421 30 91.5C30 87.3579 26.6421 84 22.5 84C18.3579 84 15 87.3579 15 91.5C15 95.6421 18.3579 99 22.5 99ZM30 113.5C30 117.642 26.6421 121 22.5 121C18.3579 121 15 117.642 15 113.5C15 109.358 18.3579 106 22.5 106C26.6421 106 30 109.358 30 113.5ZM22.5 143C26.6421 143 30 139.642 30 135.5C30 131.358 26.6421 128 22.5 128C18.3579 128 15 131.358 15 135.5C15 139.642 18.3579 143 22.5 143ZM30 157.5C30 161.642 26.6421 165 22.5 165C18.3579 165 15 161.642 15 157.5C15 153.358 18.3579 150 22.5 150C26.6421 150 30 153.358 30 157.5ZM22.5 187C26.6421 187 30 183.642 30 179.5C30 175.358 26.6421 172 22.5 172C18.3579 172 15 175.358 15 179.5C15 183.642 18.3579 187 22.5 187ZM30 201.5C30 205.642 26.6421 209 22.5 209C18.3579 209 15 205.642 15 201.5C15 197.358 18.3579 194 22.5 194C26.6421 194 30 197.358 30 201.5ZM22.5 231C26.6421 231 30 227.642 30 223.5C30 219.358 26.6421 216 22.5 216C18.3579 216 15 219.358 15 223.5C15 227.642 18.3579 231 22.5 231ZM30 245.5C30 249.642 26.6421 253 22.5 253C18.3579 253 15 249.642 15 245.5C15 241.358 18.3579 238 22.5 238C26.6421 238 30 241.358 30 245.5ZM22.5 275C26.6421 275 30 271.642 30 267.5C30 263.358 26.6421 260 22.5 260C18.3579 260 15 263.358 15 267.5C15 271.642 18.3579 275 22.5 275ZM30 289.5C30 293.642 26.6421 297 22.5 297C18.3579 297 15 293.642 15 289.5C15 285.358 18.3579 282 22.5 282C26.6421 282 30 285.358 30 289.5ZM22.5 319C26.6421 319 30 315.642 30 311.5C30 307.358 26.6421 304 22.5 304C18.3579 304 15 307.358 15 311.5C15 315.642 18.3579 319 22.5 319ZM30 333.5C30 337.642 26.6421 341 22.5 341C18.3579 341 15 337.642 15 333.5C15 329.358 18.3579 326 22.5 326C26.6421 326 30 329.358 30 333.5ZM22.5 363C26.6421 363 30 359.642 30 355.5C30 351.358 26.6421 348 22.5 348C18.3579 348 15 351.358 15 355.5C15 359.642 18.3579 363 22.5 363ZM30 377.5C30 381.642 26.6421 385 22.5 385C18.3579 385 15 381.642 15 377.5C15 373.358 18.3579 370 22.5 370C26.6421 370 30 373.358 30 377.5ZM22.5 407C26.6421 407 30 403.642 30 399.5C30 395.358 26.6421 392 22.5 392C18.3579 392 15 395.358 15 399.5C15 403.642 18.3579 407 22.5 407ZM30 421.5C30 425.642 26.6421 429 22.5 429C18.3579 429 15 425.642 15 421.5C15 417.358 18.3579 414 22.5 414C26.6421 414 30 417.358 30 421.5ZM22.5 451C26.6421 451 30 447.642 30 443.5C30 439.358 26.6421 436 22.5 436C18.3579 436 15 439.358 15 443.5C15 447.642 18.3579 451 22.5 451ZM30 465.5C30 469.642 26.6421 473 22.5 473C18.3579 473 15 469.642 15 465.5C15 461.358 18.3579 458 22.5 458C26.6421 458 30 461.358 30 465.5ZM22.5 495C26.6421 495 30 491.642 30 487.5C30 483.358 26.6421 480 22.5 480C18.3579 480 15 483.358 15 487.5C15 491.642 18.3579 495 22.5 495ZM30 509.5C30 513.642 26.6421 517 22.5 517C18.3579 517 15 513.642 15 509.5C15 505.358 18.3579 502 22.5 502C26.6421 502 30 505.358 30 509.5ZM22.5 539C26.6421 539 30 535.642 30 531.5C30 527.358 26.6421 524 22.5 524C18.3579 524 15 527.358 15 531.5C15 535.642 18.3579 539 22.5 539Z" fill="#BFB687"/>
</mask>
<g mask="url(#mask0_32_98)">
<rect x="-65" y="-21" width="510" height="613" fill="#ECEBE4"/>
<line y1="63" x2="416" y2="63" stroke="#4CA6B8" stroke-opacity="0.5" stroke-width="2"/>
<line y1="91" x2="416" y2="91" stroke="#4CA6B8" stroke-opacity="0.5" stroke-width="2"/>
<line y1="119" x2="416" y2="119" stroke="#4CA6B8" stroke-opacity="0.5" stroke-width="2"/>
<line y1="147" x2="416" y2="147" stroke="#4CA6B8" stroke-opacity="0.5" stroke-width="2"/>
<line y1="175" x2="416" y2="175" stroke="#4CA6B8" stroke-opacity="0.5" stroke-width="2"/>
<line y1="203" x2="416" y2="203" stroke="#4CA6B8" stroke-opacity="0.5" stroke-width="2"/>
<line y1="231" x2="416" y2="231" stroke="#4CA6B8" stroke-opacity="0.5" stroke-width="2"/>
<line y1="259" x2="416" y2="259" stroke="#4CA6B8" stroke-opacity="0.5" stroke-width="2"/>
<line y1="287" x2="416" y2="287" stroke="#4CA6B8" stroke-opacity="0.5" stroke-width="2"/>
<line y1="315" x2="416" y2="315" stroke="#4CA6B8" stroke-opacity="0.5" stroke-width="2"/>
<line y1="343" x2="416" y2="343" stroke="#4CA6B8" stroke-opacity="0.5" stroke-width="2"/>
<line y1="371" x2="416" y2="371" stroke="#4CA6B8" stroke-opacity="0.5" stroke-width="2"/>
<line y1="399" x2="416" y2="399" stroke="#4CA6B8" stroke-opacity="0.5" stroke-width="2"/>
<line y1="427" x2="416" y2="427" stroke="#4CA6B8" stroke-opacity="0.5" stroke-width="2"/>
<line y1="455" x2="416" y2="455" stroke="#4CA6B8" stroke-opacity="0.5" stroke-width="2"/>
<line y1="483" x2="416" y2="483" stroke="#4CA6B8" stroke-opacity="0.5" stroke-width="2"/>
<line y1="511" x2="416" y2="511" stroke="#4CA6B8" stroke-opacity="0.5" stroke-width="2"/>
<line y1="539" x2="416" y2="539" stroke="#4CA6B8" stroke-opacity="0.5" stroke-width="2"/>
<line x1="44" y1="4.37114e-08" x2="44" y2="558" stroke="#FF2323" stroke-opacity="0.5" stroke-width="2"/>
</g>
</svg>
