<svg width="35" height="118" viewBox="0 0 35 118" fill="none" xmlns="http://www.w3.org/2000/svg">
<mask id="path-1-outside-1_180_4669" maskUnits="userSpaceOnUse" x="0" y="0" width="35" height="118" fill="black">
<rect fill="white" width="35" height="118"/>
<path fill-rule="evenodd" clip-rule="evenodd" d="M17.5 5C10.5297 5 5 10.4382 5 17L5.00001 104C5.00001 104.001 5 104.002 5 104.003C5.00184 108.89 9.16975 113 14.5 113C19.8305 113 23.9986 108.889 24 104.003C24 104.002 24 104.001 24 104L24 40C24 36.7988 21.2058 34 17.5 34C13.7942 34 11 36.7988 11 40L11 88C11 89.1046 10.1046 90 9 90C7.89543 90 7 89.1046 7 88L7 40C7 34.3647 11.817 30 17.5 30C23.183 30 28 34.3647 28 40L28 104C28 111.263 21.8711 117 14.5 117C7.12887 117 1 111.263 1.00001 104C1.00001 103.998 1 103.997 1.00001 103.995L1 17C1 8.09787 8.45403 1 17.5 1C26.546 1 34 8.09787 34 17L34 88C34 89.1046 33.1046 90 32 90C30.8954 90 30 89.1046 30 88L30 17C30 10.4382 24.4703 5 17.5 5Z"/>
</mask>
<path fill-rule="evenodd" clip-rule="evenodd" d="M17.5 5C10.5297 5 5 10.4382 5 17L5.00001 104C5.00001 104.001 5 104.002 5 104.003C5.00184 108.89 9.16975 113 14.5 113C19.8305 113 23.9986 108.889 24 104.003C24 104.002 24 104.001 24 104L24 40C24 36.7988 21.2058 34 17.5 34C13.7942 34 11 36.7988 11 40L11 88C11 89.1046 10.1046 90 9 90C7.89543 90 7 89.1046 7 88L7 40C7 34.3647 11.817 30 17.5 30C23.183 30 28 34.3647 28 40L28 104C28 111.263 21.8711 117 14.5 117C7.12887 117 1 111.263 1.00001 104C1.00001 103.998 1 103.997 1.00001 103.995L1 17C1 8.09787 8.45403 1 17.5 1C26.546 1 34 8.09787 34 17L34 88C34 89.1046 33.1046 90 32 90C30.8954 90 30 89.1046 30 88L30 17C30 10.4382 24.4703 5 17.5 5Z" fill="url(#paint0_linear_180_4669)"/>
<path d="M5 17H4H5ZM5.00001 104H6.00001H5.00001ZM5 104.003L4 104.001L4 104.004L5 104.003ZM24 104.003L25 104.003V104.003H24ZM1.00001 104H2.00001V104L1.00001 104ZM1.00001 103.995L2.00001 103.998V103.995H1.00001ZM1 17H0H1ZM30 88H29H30ZM30 17H31H30ZM6 17C6 11.0216 11.0503 6 17.5 6V4C10.0091 4 4 9.85469 4 17H6ZM6.00001 104L6 17H4L4.00001 104H6.00001ZM6 104.005C6 104.003 6.00001 104.001 6.00001 104H4.00001C4.00001 104.001 4 104.001 4 104.001L6 104.005ZM4 104.004C4.00206 109.481 8.65714 114 14.5 114L14.5 112C9.68237 112 6.00161 108.298 6 104.003L4 104.004ZM14.5 114C20.3431 114 24.9984 109.48 25 104.003L23 104.002C22.9987 108.298 19.3179 112 14.5 112L14.5 114ZM23 104C23 104.001 23 104.002 23 104.002C23 104.003 23 104.003 23 104.003H25C25 104.001 25 104 25 104C25 104 25 104 25 104H23ZM23 40L23 104H25L25 40H23ZM17.5 35C20.7058 35 23 37.402 23 40H25C25 36.1956 21.7058 33 17.5 33L17.5 35ZM12 40C12 37.402 14.2942 35 17.5 35L17.5 33C13.2942 33 10 36.1956 10 40H12ZM12 88L12 40H10L10 88H12ZM9 91C10.6569 91 12 89.6569 12 88H10C10 88.5523 9.55228 89 9 89V91ZM6 88C6 89.6569 7.34315 91 9 91V89C8.44772 89 8 88.5523 8 88H6ZM6 40L6 88H8L8 40H6ZM17.5 29C11.3261 29 6 33.7529 6 40H8C8 34.9764 12.3078 31 17.5 31V29ZM29 40C29 33.7529 23.6739 29 17.5 29V31C22.6922 31 27 34.9764 27 40H29ZM29 104L29 40H27L27 104H29ZM27 104C27 110.667 21.3632 116 14.5 116V118C22.3791 118 29 111.858 29 104H27ZM14.5 116C7.63685 116 2 110.667 2.00001 104H5.1856e-06C-4.76837e-07 111.858 6.62089 118 14.5 118V116ZM2.00001 104C2.00001 103.999 2 103.999 2 103.998C2 103.998 2 103.997 2 103.997C2 103.997 2 103.997 2 103.998L7.7486e-06 103.993C2.80142e-06 103.995 3.45707e-06 103.997 4.05312e-06 103.998C4.94719e-06 104 5.1856e-06 104 5.1856e-06 104L2.00001 104ZM0 17L5.1856e-06 103.995H2.00001L2 17H0ZM17.5 0C7.93637 0 0 7.51159 0 17H2C2 8.68415 8.9717 2 17.5 2V0ZM35 17C35 7.51159 27.0636 0 17.5 0V2C26.0283 2 33 8.68415 33 17H35ZM35 88L35 17H33L33 88H35ZM32 91C33.6569 91 35 89.6569 35 88H33C33 88.5523 32.5523 89 32 89V91ZM29 88C29 89.6569 30.3431 91 32 91V89C31.4477 89 31 88.5523 31 88H29ZM29 17L29 88H31L31 17H29ZM17.5 6C23.9497 6 29 11.0216 29 17H31C31 9.85469 24.9909 4 17.5 4V6Z" fill="url(#paint1_linear_180_4669)" mask="url(#path-1-outside-1_180_4669)"/>
<defs>
<linearGradient id="paint0_linear_180_4669" x1="17.5" y1="1" x2="17.5" y2="117" gradientUnits="userSpaceOnUse">
<stop stop-color="#6E6E6E"/>
<stop offset="0.475" stop-color="#D4D4D4"/>
<stop offset="1" stop-color="#B1B1B1"/>
</linearGradient>
<linearGradient id="paint1_linear_180_4669" x1="38.5901" y1="53.7899" x2="-4.56414" y2="57.6254" gradientUnits="userSpaceOnUse">
<stop stop-color="#DBDBDB"/>
<stop offset="0.505" stop-color="#808080"/>
<stop offset="1" stop-color="#DBDBDB"/>
</linearGradient>
</defs>
</svg>
