<svg width="55" height="491" viewBox="0 0 55 491" fill="none" xmlns="http://www.w3.org/2000/svg">
<rect x="26" y="42" width="15" height="38" fill="#EBE7E7"/>
<path d="M22 480H14L17.0602 488.416C17.3794 489.293 18.6206 489.293 18.9398 488.416L22 480Z" fill="#595959"/>
<rect x="14" y="411" width="8" height="69" fill="#595959"/>
<path d="M8 3C8 1.34315 9.34315 0 11 0H25C26.6569 0 28 1.34315 28 3V62H8V3Z" fill="#FFBF40"/>
<rect y="31" width="36" height="403" fill="#F2EFEF"/>
<path d="M36 434H0L12 472H24L36 434Z" fill="#E9E6E6"/>
<path d="M32 325L32 430" stroke="#E9E6E6" stroke-width="2" stroke-linecap="round"/>
<path d="M18 325L18 430" stroke="#E9E6E6" stroke-width="2" stroke-linecap="round"/>
<path d="M4 325L4 430" stroke="#E9E6E6" stroke-width="2" stroke-linecap="round"/>
<path d="M32.5714 22L36 31H0L3.51375 22H32.5714Z" fill="#E9E6E6"/>
<path fill-rule="evenodd" clip-rule="evenodd" d="M39.8125 35.2743C37.2845 42.2333 35.0852 61.4414 34.4675 84.1579C34.4306 85.5164 34.4 86.8631 34.3755 88.1961C40.3445 90.1103 44.6391 95.9069 44.4101 102.368L41.9545 171.651C41.7997 176.018 39.6122 179.728 36.3368 181.945C36.3462 182.566 36.3618 183.193 36.3838 183.825C36.7478 194.301 38.7525 203.056 41.2216 206.062V220H46.3366C46.3308 219.472 46.3279 218.941 46.3279 218.408C46.3279 209.802 47.0878 201.861 48.3703 195.473V195.329C51.243 180.899 53.5235 154.956 54.191 125.261C54.6178 106.275 54.3178 88.7457 53.4663 74.728C50.5217 68.3363 48.509 56.5968 48.3772 43.0611L48.3703 43.0511V35.2743H39.8125Z" fill="#F2EFEF"/>
<path d="M12 97C12 95.3431 10.6569 94 9 94H0V223H9C10.6569 223 12 221.657 12 220V97Z" fill="white"/>
<path opacity="0.1" d="M32.5 22H18V472H24L36 434V31L32.5 22Z" fill="#595959"/>
</svg>
