<svg width="416" height="1803" viewBox="0 0 416 1803" fill="none" xmlns="http://www.w3.org/2000/svg">
<mask id="mask0_96_814" style="mask-type:alpha" maskUnits="userSpaceOnUse" x="0" y="0" width="416" height="1803">
<path fill-rule="evenodd" clip-rule="evenodd" d="M9 0C4.02944 0 0 4.02938 0 8.99995V1794C0 1798.97 4.02945 1803 9.00001 1803H407C411.971 1803 416 1798.97 416 1794V9C416 4.02944 411.971 0 407 0H9ZM27 109C31.9706 109 36 104.971 36 100C36 95.0294 31.9706 91 27 91C22.0294 91 18 95.0294 18 100C18 104.971 22.0294 109 27 109ZM36 65C36 69.9706 31.9706 74 27 74C22.0294 74 18 69.9706 18 65C18 60.0294 22.0294 56 27 56C31.9706 56 36 60.0294 36 65ZM27 39C31.9706 39 36 34.9706 36 30C36 25.0294 31.9706 21 27 21C22.0294 21 18 25.0294 18 30C18 34.9706 22.0294 39 27 39ZM36 135C36 139.971 31.9706 144 27 144C22.0294 144 18 139.971 18 135C18 130.029 22.0294 126 27 126C31.9706 126 36 130.029 36 135ZM27 179C31.9706 179 36 174.971 36 170C36 165.029 31.9706 161 27 161C22.0294 161 18 165.029 18 170C18 174.971 22.0294 179 27 179ZM36 205C36 209.971 31.9706 214 27 214C22.0294 214 18 209.971 18 205C18 200.029 22.0294 196 27 196C31.9706 196 36 200.029 36 205ZM27 249C31.9706 249 36 244.971 36 240C36 235.029 31.9706 231 27 231C22.0294 231 18 235.029 18 240C18 244.971 22.0294 249 27 249ZM36 275C36 279.971 31.9706 284 27 284C22.0294 284 18 279.971 18 275C18 270.029 22.0294 266 27 266C31.9706 266 36 270.029 36 275ZM27 319C31.9706 319 36 314.971 36 310C36 305.029 31.9706 301 27 301C22.0294 301 18 305.029 18 310C18 314.971 22.0294 319 27 319ZM36 345C36 349.971 31.9706 354 27 354C22.0294 354 18 349.971 18 345C18 340.029 22.0294 336 27 336C31.9706 336 36 340.029 36 345ZM27 389C31.9706 389 36 384.971 36 380C36 375.029 31.9706 371 27 371C22.0294 371 18 375.029 18 380C18 384.971 22.0294 389 27 389ZM36 415C36 419.971 31.9706 424 27 424C22.0294 424 18 419.971 18 415C18 410.029 22.0294 406 27 406C31.9706 406 36 410.029 36 415ZM27 459C31.9706 459 36 454.971 36 450C36 445.029 31.9706 441 27 441C22.0294 441 18 445.029 18 450C18 454.971 22.0294 459 27 459ZM36 485C36 489.971 31.9706 494 27 494C22.0294 494 18 489.971 18 485C18 480.029 22.0294 476 27 476C31.9706 476 36 480.029 36 485ZM27 529C31.9706 529 36 524.971 36 520C36 515.029 31.9706 511 27 511C22.0294 511 18 515.029 18 520C18 524.971 22.0294 529 27 529ZM36 555C36 559.971 31.9706 564 27 564C22.0294 564 18 559.971 18 555C18 550.029 22.0294 546 27 546C31.9706 546 36 550.029 36 555ZM27 599C31.9706 599 36 594.971 36 590C36 585.029 31.9706 581 27 581C22.0294 581 18 585.029 18 590C18 594.971 22.0294 599 27 599ZM36 625C36 629.971 31.9706 634 27 634C22.0294 634 18 629.971 18 625C18 620.029 22.0294 616 27 616C31.9706 616 36 620.029 36 625ZM27 669C31.9706 669 36 664.971 36 660C36 655.029 31.9706 651 27 651C22.0294 651 18 655.029 18 660C18 664.971 22.0294 669 27 669ZM36 695C36 699.971 31.9706 704 27 704C22.0294 704 18 699.971 18 695C18 690.029 22.0294 686 27 686C31.9706 686 36 690.029 36 695ZM27 739C31.9706 739 36 734.971 36 730C36 725.029 31.9706 721 27 721C22.0294 721 18 725.029 18 730C18 734.971 22.0294 739 27 739ZM36 765C36 769.971 31.9706 774 27 774C22.0294 774 18 769.971 18 765C18 760.029 22.0294 756 27 756C31.9706 756 36 760.029 36 765ZM27 809C31.9706 809 36 804.971 36 800C36 795.029 31.9706 791 27 791C22.0294 791 18 795.029 18 800C18 804.971 22.0294 809 27 809ZM36 835C36 839.971 31.9706 844 27 844C22.0294 844 18 839.971 18 835C18 830.029 22.0294 826 27 826C31.9706 826 36 830.029 36 835ZM27 879C31.9706 879 36 874.971 36 870C36 865.029 31.9706 861 27 861C22.0294 861 18 865.029 18 870C18 874.971 22.0294 879 27 879ZM36 905C36 909.971 31.9706 914 27 914C22.0294 914 18 909.971 18 905C18 900.029 22.0294 896 27 896C31.9706 896 36 900.029 36 905ZM27 949C31.9706 949 36 944.971 36 940C36 935.029 31.9706 931 27 931C22.0294 931 18 935.029 18 940C18 944.971 22.0294 949 27 949ZM36 975C36 979.971 31.9706 984 27 984C22.0294 984 18 979.971 18 975C18 970.029 22.0294 966 27 966C31.9706 966 36 970.029 36 975ZM27 1019C31.9706 1019 36 1014.97 36 1010C36 1005.03 31.9706 1001 27 1001C22.0294 1001 18 1005.03 18 1010C18 1014.97 22.0294 1019 27 1019ZM36 1045C36 1049.97 31.9706 1054 27 1054C22.0294 1054 18 1049.97 18 1045C18 1040.03 22.0294 1036 27 1036C31.9706 1036 36 1040.03 36 1045ZM27 1089C31.9706 1089 36 1084.97 36 1080C36 1075.03 31.9706 1071 27 1071C22.0294 1071 18 1075.03 18 1080C18 1084.97 22.0294 1089 27 1089ZM36 1115C36 1119.97 31.9706 1124 27 1124C22.0294 1124 18 1119.97 18 1115C18 1110.03 22.0294 1106 27 1106C31.9706 1106 36 1110.03 36 1115ZM27 1159C31.9706 1159 36 1154.97 36 1150C36 1145.03 31.9706 1141 27 1141C22.0294 1141 18 1145.03 18 1150C18 1154.97 22.0294 1159 27 1159ZM36 1185C36 1189.97 31.9706 1194 27 1194C22.0294 1194 18 1189.97 18 1185C18 1180.03 22.0294 1176 27 1176C31.9706 1176 36 1180.03 36 1185ZM27 1229C31.9706 1229 36 1224.97 36 1220C36 1215.03 31.9706 1211 27 1211C22.0294 1211 18 1215.03 18 1220C18 1224.97 22.0294 1229 27 1229ZM36 1255C36 1259.97 31.9706 1264 27 1264C22.0294 1264 18 1259.97 18 1255C18 1250.03 22.0294 1246 27 1246C31.9706 1246 36 1250.03 36 1255ZM27 1299C31.9706 1299 36 1294.97 36 1290C36 1285.03 31.9706 1281 27 1281C22.0294 1281 18 1285.03 18 1290C18 1294.97 22.0294 1299 27 1299ZM36 1325C36 1329.97 31.9706 1334 27 1334C22.0294 1334 18 1329.97 18 1325C18 1320.03 22.0294 1316 27 1316C31.9706 1316 36 1320.03 36 1325ZM27 1369C31.9706 1369 36 1364.97 36 1360C36 1355.03 31.9706 1351 27 1351C22.0294 1351 18 1355.03 18 1360C18 1364.97 22.0294 1369 27 1369ZM36 1395C36 1399.97 31.9706 1404 27 1404C22.0294 1404 18 1399.97 18 1395C18 1390.03 22.0294 1386 27 1386C31.9706 1386 36 1390.03 36 1395ZM27 1439C31.9706 1439 36 1434.97 36 1430C36 1425.03 31.9706 1421 27 1421C22.0294 1421 18 1425.03 18 1430C18 1434.97 22.0294 1439 27 1439ZM36 1465C36 1469.97 31.9706 1474 27 1474C22.0294 1474 18 1469.97 18 1465C18 1460.03 22.0294 1456 27 1456C31.9706 1456 36 1460.03 36 1465ZM27 1509C31.9706 1509 36 1504.97 36 1500C36 1495.03 31.9706 1491 27 1491C22.0294 1491 18 1495.03 18 1500C18 1504.97 22.0294 1509 27 1509ZM36 1535C36 1539.97 31.9706 1544 27 1544C22.0294 1544 18 1539.97 18 1535C18 1530.03 22.0294 1526 27 1526C31.9706 1526 36 1530.03 36 1535ZM27 1579C31.9706 1579 36 1574.97 36 1570C36 1565.03 31.9706 1561 27 1561C22.0294 1561 18 1565.03 18 1570C18 1574.97 22.0294 1579 27 1579ZM36 1605C36 1609.97 31.9706 1614 27 1614C22.0294 1614 18 1609.97 18 1605C18 1600.03 22.0294 1596 27 1596C31.9706 1596 36 1600.03 36 1605ZM27 1649C31.9706 1649 36 1644.97 36 1640C36 1635.03 31.9706 1631 27 1631C22.0294 1631 18 1635.03 18 1640C18 1644.97 22.0294 1649 27 1649ZM36 1675C36 1679.97 31.9706 1684 27 1684C22.0294 1684 18 1679.97 18 1675C18 1670.03 22.0294 1666 27 1666C31.9706 1666 36 1670.03 36 1675ZM27 1719C31.9706 1719 36 1714.97 36 1710C36 1705.03 31.9706 1701 27 1701C22.0294 1701 18 1705.03 18 1710C18 1714.97 22.0294 1719 27 1719ZM36 1745C36 1749.97 31.9706 1754 27 1754C22.0294 1754 18 1749.97 18 1745C18 1740.03 22.0294 1736 27 1736C31.9706 1736 36 1740.03 36 1745ZM27 1789C31.9706 1789 36 1784.97 36 1780C36 1775.03 31.9706 1771 27 1771C22.0294 1771 18 1775.03 18 1780C18 1784.97 22.0294 1789 27 1789Z" fill="#7F7753"/>
</mask>
<g mask="url(#mask0_96_814)">
<rect width="416" height="1803" fill="#ECEBE4"/>
<line y1="116" x2="416" y2="116" stroke="#4CA6B8" stroke-opacity="0.5" stroke-width="4"/>
<line y1="151" x2="416" y2="151" stroke="#4CA6B8" stroke-opacity="0.5" stroke-width="4"/>
<line y1="755" x2="416" y2="755" stroke="#4CA6B8" stroke-opacity="0.5" stroke-width="4"/>
<line y1="187" x2="416" y2="187" stroke="#4CA6B8" stroke-opacity="0.5" stroke-width="4"/>
<line y1="791" x2="416" y2="791" stroke="#4CA6B8" stroke-opacity="0.5" stroke-width="4"/>
<line y1="222" x2="416" y2="222" stroke="#4CA6B8" stroke-opacity="0.5" stroke-width="4"/>
<line y1="826" x2="416" y2="826" stroke="#4CA6B8" stroke-opacity="0.5" stroke-width="4"/>
<line y1="258" x2="416" y2="258" stroke="#4CA6B8" stroke-opacity="0.5" stroke-width="4"/>
<line y1="861" x2="416" y2="861" stroke="#4CA6B8" stroke-opacity="0.5" stroke-width="4"/>
<line y1="294" x2="416" y2="294" stroke="#4CA6B8" stroke-opacity="0.5" stroke-width="4"/>
<line y1="897" x2="416" y2="897" stroke="#4CA6B8" stroke-opacity="0.5" stroke-width="4"/>
<line y1="329" x2="416" y2="329" stroke="#4CA6B8" stroke-opacity="0.5" stroke-width="4"/>
<line y1="932" x2="416" y2="932" stroke="#4CA6B8" stroke-opacity="0.5" stroke-width="4"/>
<line y1="364" x2="416" y2="364" stroke="#4CA6B8" stroke-opacity="0.5" stroke-width="4"/>
<line y1="968" x2="416" y2="968" stroke="#4CA6B8" stroke-opacity="0.5" stroke-width="4"/>
<line y1="400" x2="416" y2="400" stroke="#4CA6B8" stroke-opacity="0.5" stroke-width="4"/>
<line y1="1004" x2="416" y2="1004" stroke="#4CA6B8" stroke-opacity="0.5" stroke-width="4"/>
<line y1="435" x2="416" y2="435" stroke="#4CA6B8" stroke-opacity="0.5" stroke-width="4"/>
<line y1="1039" x2="416" y2="1039" stroke="#4CA6B8" stroke-opacity="0.5" stroke-width="4"/>
<line y1="471" x2="416" y2="471" stroke="#4CA6B8" stroke-opacity="0.5" stroke-width="4"/>
<line y1="1075" x2="416" y2="1075" stroke="#4CA6B8" stroke-opacity="0.5" stroke-width="4"/>
<line y1="507" x2="416" y2="507" stroke="#4CA6B8" stroke-opacity="0.5" stroke-width="4"/>
<line y1="1110" x2="416" y2="1110" stroke="#4CA6B8" stroke-opacity="0.5" stroke-width="4"/>
<line y1="542" x2="416" y2="542" stroke="#4CA6B8" stroke-opacity="0.5" stroke-width="4"/>
<line y1="1145" x2="416" y2="1145" stroke="#4CA6B8" stroke-opacity="0.5" stroke-width="4"/>
<line y1="578" x2="416" y2="578" stroke="#4CA6B8" stroke-opacity="0.5" stroke-width="4"/>
<line y1="1181" x2="416" y2="1181" stroke="#4CA6B8" stroke-opacity="0.5" stroke-width="4"/>
<line y1="613" x2="416" y2="613" stroke="#4CA6B8" stroke-opacity="0.5" stroke-width="4"/>
<line y1="1217" x2="416" y2="1217" stroke="#4CA6B8" stroke-opacity="0.5" stroke-width="4"/>
<line y1="648" x2="416" y2="648" stroke="#4CA6B8" stroke-opacity="0.5" stroke-width="4"/>
<line y1="1252" x2="416" y2="1252" stroke="#4CA6B8" stroke-opacity="0.5" stroke-width="4"/>
<line y1="684" x2="416" y2="684" stroke="#4CA6B8" stroke-opacity="0.5" stroke-width="4"/>
<line y1="1288" x2="416" y2="1288" stroke="#4CA6B8" stroke-opacity="0.5" stroke-width="4"/>
<line y1="719" x2="416" y2="719" stroke="#4CA6B8" stroke-opacity="0.5" stroke-width="4"/>
<line y1="1323" x2="416" y2="1323" stroke="#4CA6B8" stroke-opacity="0.5" stroke-width="4"/>
<line y1="1358" x2="416" y2="1358" stroke="#4CA6B8" stroke-opacity="0.5" stroke-width="4"/>
<line y1="1393" x2="416" y2="1393" stroke="#4CA6B8" stroke-opacity="0.5" stroke-width="4"/>
<line y1="1428" x2="416" y2="1428" stroke="#4CA6B8" stroke-opacity="0.5" stroke-width="4"/>
<line y1="1463" x2="416" y2="1463" stroke="#4CA6B8" stroke-opacity="0.5" stroke-width="4"/>
<line y1="1498" x2="416" y2="1498" stroke="#4CA6B8" stroke-opacity="0.5" stroke-width="4"/>
<line y1="1533" x2="416" y2="1533" stroke="#4CA6B8" stroke-opacity="0.5" stroke-width="4"/>
<line y1="1568" x2="416" y2="1568" stroke="#4CA6B8" stroke-opacity="0.5" stroke-width="4"/>
<line y1="1603" x2="416" y2="1603" stroke="#4CA6B8" stroke-opacity="0.5" stroke-width="4"/>
<line y1="1638" x2="416" y2="1638" stroke="#4CA6B8" stroke-opacity="0.5" stroke-width="4"/>
<line y1="1673" x2="416" y2="1673" stroke="#4CA6B8" stroke-opacity="0.5" stroke-width="4"/>
<line y1="1708" x2="416" y2="1708" stroke="#4CA6B8" stroke-opacity="0.5" stroke-width="4"/>
<line y1="1743" x2="416" y2="1743" stroke="#4CA6B8" stroke-opacity="0.5" stroke-width="4"/>
<line y1="1778" x2="416" y2="1778" stroke="#4CA6B8" stroke-opacity="0.5" stroke-width="4"/>
<line x1="55" x2="55" y2="1815" stroke="#FF2323" stroke-opacity="0.5" stroke-width="4"/>
</g>
</svg>
