<svg width="416" height="1310" viewBox="0 0 416 1310" fill="none" xmlns="http://www.w3.org/2000/svg">
<mask id="mask0_63_425" style="mask-type:alpha" maskUnits="userSpaceOnUse" x="0" y="0" width="416" height="1310">
<path fill-rule="evenodd" clip-rule="evenodd" d="M0 8.99998C0 4.02941 4.02944 0 9 0H407C411.971 0 416 4.02944 416 9V1301C416 1305.97 411.971 1310 407 1310H9.00001C4.02945 1310 0 1305.97 0 1301V8.99998ZM43 100C43 106.627 37.6274 112 31 112C24.3726 112 19 106.627 19 100C19 93.3726 24.3726 88 31 88C37.6274 88 43 93.3726 43 100ZM31 77C37.6274 77 43 71.6274 43 65C43 58.3726 37.6274 53 31 53C24.3726 53 19 58.3726 19 65C19 71.6274 24.3726 77 31 77ZM43 30C43 36.6274 37.6274 42 31 42C24.3726 42 19 36.6274 19 30C19 23.3726 24.3726 18 31 18C37.6274 18 43 23.3726 43 30ZM31 147C37.6274 147 43 141.627 43 135C43 128.373 37.6274 123 31 123C24.3726 123 19 128.373 19 135C19 141.627 24.3726 147 31 147ZM43 171C43 177.627 37.6274 183 31 183C24.3726 183 19 177.627 19 171C19 164.373 24.3726 159 31 159C37.6274 159 43 164.373 43 171ZM31 218C37.6274 218 43 212.627 43 206C43 199.373 37.6274 194 31 194C24.3726 194 19 199.373 19 206C19 212.627 24.3726 218 31 218ZM43 241C43 247.627 37.6274 253 31 253C24.3726 253 19 247.627 19 241C19 234.373 24.3726 229 31 229C37.6274 229 43 234.373 43 241ZM31 288C37.6274 288 43 282.627 43 276C43 269.373 37.6274 264 31 264C24.3726 264 19 269.373 19 276C19 282.627 24.3726 288 31 288ZM43 311C43 317.627 37.6274 323 31 323C24.3726 323 19 317.627 19 311C19 304.373 24.3726 299 31 299C37.6274 299 43 304.373 43 311ZM31 359C37.6274 359 43 353.627 43 347C43 340.373 37.6274 335 31 335C24.3726 335 19 340.373 19 347C19 353.627 24.3726 359 31 359ZM43 382C43 388.627 37.6274 394 31 394C24.3726 394 19 388.627 19 382C19 375.373 24.3726 370 31 370C37.6274 370 43 375.373 43 382ZM31 429C37.6274 429 43 423.627 43 417C43 410.373 37.6274 405 31 405C24.3726 405 19 410.373 19 417C19 423.627 24.3726 429 31 429ZM43 452C43 458.627 37.6274 464 31 464C24.3726 464 19 458.627 19 452C19 445.373 24.3726 440 31 440C37.6274 440 43 445.373 43 452ZM31 500C37.6274 500 43 494.627 43 488C43 481.373 37.6274 476 31 476C24.3726 476 19 481.373 19 488C19 494.627 24.3726 500 31 500ZM43 524C43 530.627 37.6274 536 31 536C24.3726 536 19 530.627 19 524C19 517.373 24.3726 512 31 512C37.6274 512 43 517.373 43 524ZM31 571C37.6274 571 43 565.627 43 559C43 552.373 37.6274 547 31 547C24.3726 547 19 552.373 19 559C19 565.627 24.3726 571 31 571ZM43 594C43 600.627 37.6274 606 31 606C24.3726 606 19 600.627 19 594C19 587.373 24.3726 582 31 582C37.6274 582 43 587.373 43 594ZM31 641C37.6274 641 43 635.627 43 629C43 622.373 37.6274 617 31 617C24.3726 617 19 622.373 19 629C19 635.627 24.3726 641 31 641ZM43 664C43 670.627 37.6274 676 31 676C24.3726 676 19 670.627 19 664C19 657.373 24.3726 652 31 652C37.6274 652 43 657.373 43 664ZM31 712C37.6274 712 43 706.627 43 700C43 693.373 37.6274 688 31 688C24.3726 688 19 693.373 19 700C19 706.627 24.3726 712 31 712ZM43 735C43 741.627 37.6274 747 31 747C24.3726 747 19 741.627 19 735C19 728.373 24.3726 723 31 723C37.6274 723 43 728.373 43 735ZM31 782C37.6274 782 43 776.627 43 770C43 763.373 37.6274 758 31 758C24.3726 758 19 763.373 19 770C19 776.627 24.3726 782 31 782ZM43 805C43 811.627 37.6274 817 31 817C24.3726 817 19 811.627 19 805C19 798.373 24.3726 793 31 793C37.6274 793 43 798.373 43 805ZM31 852C37.6274 852 43 846.627 43 840C43 833.373 37.6274 828 31 828C24.3726 828 19 833.373 19 840C19 846.627 24.3726 852 31 852ZM43 876C43 882.627 37.6274 888 31 888C24.3726 888 19 882.627 19 876C19 869.373 24.3726 864 31 864C37.6274 864 43 869.373 43 876ZM31 923C37.6274 923 43 917.627 43 911C43 904.373 37.6274 899 31 899C24.3726 899 19 904.373 19 911C19 917.627 24.3726 923 31 923ZM43 946C43 952.627 37.6274 958 31 958C24.3726 958 19 952.627 19 946C19 939.373 24.3726 934 31 934C37.6274 934 43 939.373 43 946ZM31 993C37.6274 993 43 987.627 43 981C43 974.373 37.6274 969 31 969C24.3726 969 19 974.373 19 981C19 987.627 24.3726 993 31 993ZM43 1016C43 1022.63 37.6274 1028 31 1028C24.3726 1028 19 1022.63 19 1016C19 1009.37 24.3726 1004 31 1004C37.6274 1004 43 1009.37 43 1016ZM31 1063C37.6274 1063 43 1057.63 43 1051C43 1044.37 37.6274 1039 31 1039C24.3726 1039 19 1044.37 19 1051C19 1057.63 24.3726 1063 31 1063ZM43 1086C43 1092.63 37.6274 1098 31 1098C24.3726 1098 19 1092.63 19 1086C19 1079.37 24.3726 1074 31 1074C37.6274 1074 43 1079.37 43 1086ZM31 1133C37.6274 1133 43 1127.63 43 1121C43 1114.37 37.6274 1109 31 1109C24.3726 1109 19 1114.37 19 1121C19 1127.63 24.3726 1133 31 1133ZM43 1156C43 1162.63 37.6274 1168 31 1168C24.3726 1168 19 1162.63 19 1156C19 1149.37 24.3726 1144 31 1144C37.6274 1144 43 1149.37 43 1156ZM31 1203C37.6274 1203 43 1197.63 43 1191C43 1184.37 37.6274 1179 31 1179C24.3726 1179 19 1184.37 19 1191C19 1197.63 24.3726 1203 31 1203ZM43 1226C43 1232.63 37.6274 1238 31 1238C24.3726 1238 19 1232.63 19 1226C19 1219.37 24.3726 1214 31 1214C37.6274 1214 43 1219.37 43 1226ZM31 1273C37.6274 1273 43 1267.63 43 1261C43 1254.37 37.6274 1249 31 1249C24.3726 1249 19 1254.37 19 1261C19 1267.63 24.3726 1273 31 1273Z" fill="#8F8585"/>
</mask>
<g mask="url(#mask0_63_425)">
<rect width="416" height="1310" fill="#ECEBE4"/>
<line y1="116" x2="416" y2="116" stroke="#4CA6B8" stroke-opacity="0.5" stroke-width="4"/>
<line y1="151" x2="416" y2="151" stroke="#4CA6B8" stroke-opacity="0.5" stroke-width="4"/>
<line y1="755" x2="416" y2="755" stroke="#4CA6B8" stroke-opacity="0.5" stroke-width="4"/>
<line y1="187" x2="416" y2="187" stroke="#4CA6B8" stroke-opacity="0.5" stroke-width="4"/>
<line y1="791" x2="416" y2="791" stroke="#4CA6B8" stroke-opacity="0.5" stroke-width="4"/>
<line y1="222" x2="416" y2="222" stroke="#4CA6B8" stroke-opacity="0.5" stroke-width="4"/>
<line y1="826" x2="416" y2="826" stroke="#4CA6B8" stroke-opacity="0.5" stroke-width="4"/>
<line y1="258" x2="416" y2="258" stroke="#4CA6B8" stroke-opacity="0.5" stroke-width="4"/>
<line y1="861" x2="416" y2="861" stroke="#4CA6B8" stroke-opacity="0.5" stroke-width="4"/>
<line y1="294" x2="416" y2="294" stroke="#4CA6B8" stroke-opacity="0.5" stroke-width="4"/>
<line y1="897" x2="416" y2="897" stroke="#4CA6B8" stroke-opacity="0.5" stroke-width="4"/>
<line y1="329" x2="416" y2="329" stroke="#4CA6B8" stroke-opacity="0.5" stroke-width="4"/>
<line y1="932" x2="416" y2="932" stroke="#4CA6B8" stroke-opacity="0.5" stroke-width="4"/>
<line y1="364" x2="416" y2="364" stroke="#4CA6B8" stroke-opacity="0.5" stroke-width="4"/>
<line y1="968" x2="416" y2="968" stroke="#4CA6B8" stroke-opacity="0.5" stroke-width="4"/>
<line y1="400" x2="416" y2="400" stroke="#4CA6B8" stroke-opacity="0.5" stroke-width="4"/>
<line y1="1004" x2="416" y2="1004" stroke="#4CA6B8" stroke-opacity="0.5" stroke-width="4"/>
<line y1="435" x2="416" y2="435" stroke="#4CA6B8" stroke-opacity="0.5" stroke-width="4"/>
<line y1="1039" x2="416" y2="1039" stroke="#4CA6B8" stroke-opacity="0.5" stroke-width="4"/>
<line y1="471" x2="416" y2="471" stroke="#4CA6B8" stroke-opacity="0.5" stroke-width="4"/>
<line y1="1075" x2="416" y2="1075" stroke="#4CA6B8" stroke-opacity="0.5" stroke-width="4"/>
<line y1="507" x2="416" y2="507" stroke="#4CA6B8" stroke-opacity="0.5" stroke-width="4"/>
<line y1="1110" x2="416" y2="1110" stroke="#4CA6B8" stroke-opacity="0.5" stroke-width="4"/>
<line y1="542" x2="416" y2="542" stroke="#4CA6B8" stroke-opacity="0.5" stroke-width="4"/>
<line y1="1145" x2="416" y2="1145" stroke="#4CA6B8" stroke-opacity="0.5" stroke-width="4"/>
<line y1="578" x2="416" y2="578" stroke="#4CA6B8" stroke-opacity="0.5" stroke-width="4"/>
<line y1="1181" x2="416" y2="1181" stroke="#4CA6B8" stroke-opacity="0.5" stroke-width="4"/>
<line y1="613" x2="416" y2="613" stroke="#4CA6B8" stroke-opacity="0.5" stroke-width="4"/>
<line y1="1217" x2="416" y2="1217" stroke="#4CA6B8" stroke-opacity="0.5" stroke-width="4"/>
<line y1="648" x2="416" y2="648" stroke="#4CA6B8" stroke-opacity="0.5" stroke-width="4"/>
<line y1="1252" x2="416" y2="1252" stroke="#4CA6B8" stroke-opacity="0.5" stroke-width="4"/>
<line y1="684" x2="416" y2="684" stroke="#4CA6B8" stroke-opacity="0.5" stroke-width="4"/>
<line y1="1288" x2="416" y2="1288" stroke="#4CA6B8" stroke-opacity="0.5" stroke-width="4"/>
<line y1="719" x2="416" y2="719" stroke="#4CA6B8" stroke-opacity="0.5" stroke-width="4"/>
<line x1="55" y1="-8.74228e-08" x2="55.0001" y2="1358" stroke="#FF2323" stroke-opacity="0.5" stroke-width="4"/>
</g>
</svg>
