<svg width="416" height="600" viewBox="0 0 416 600" fill="none" xmlns="http://www.w3.org/2000/svg">
<mask id="mask0_111_184" style="mask-type:alpha" maskUnits="userSpaceOnUse" x="0" y="0" width="416" height="600">
<path fill-rule="evenodd" clip-rule="evenodd" d="M0 9C0 4.0293 4.02942 0 9 0H407C411.971 0 416 4.02954 416 9V582.171C410.896 584.249 404.832 586.837 397.717 589.875C388.991 593.6 381.843 596.657 379.5 599C374.3 604.2 348.667 587.833 336.5 579L272.105 544.067C266.33 540.934 263.443 539.368 260.542 539.997C257.641 540.626 255.662 543.248 251.704 548.492L244.801 557.638C242.445 560.76 241.267 562.322 239.582 563.161C237.897 564 235.942 564 232.03 564H226.5H199.97C196.058 564 194.103 564 192.418 564.839C190.733 565.678 189.555 567.24 187.199 570.362L176.801 584.138C174.445 587.26 173.267 588.822 171.582 589.661C169.897 590.5 167.942 590.5 164.03 590.5H144.555C141.561 590.5 140.064 590.5 138.696 589.982C137.329 589.465 136.208 588.475 133.967 586.496L133.965 586.495L133.964 586.493L133.962 586.492L116.591 571.147C112.672 567.685 110.712 565.954 108.286 565.637C105.86 565.32 103.521 566.489 98.8435 568.828L85.3328 575.583L85.3304 575.585C82.9999 576.75 81.8342 577.333 80.9575 578.175C79.9838 579.111 79.2627 580.278 78.8615 581.567C78.5 582.728 78.5 584.032 78.5 586.639C78.5 590.706 78.5 592.739 77.778 594.321C76.9784 596.073 75.5735 597.479 73.8212 598.278C72.2391 599 70.2058 599 66.1393 599H27C31.9706 599 36 594.97 36 590C36 585.03 31.9706 581 27 581C22.0294 581 18 585.03 18 590C18 594.97 22.0294 599 27 599H17.7771C15.8971 599 14.9571 599 14.0505 598.786C13.144 598.572 12.3032 598.152 10.6216 597.311L0 592V9ZM27 109C31.9706 109 36 104.97 36 100C36 95.0295 31.9706 91 27 91C22.0294 91 18 95.0295 18 100C18 104.97 22.0294 109 27 109ZM36 65C36 69.9705 31.9706 74 27 74C22.0294 74 18 69.9705 18 65C18 60.0295 22.0294 56 27 56C31.9706 56 36 60.0295 36 65ZM27 39C31.9706 39 36 34.9705 36 30C36 25.0295 31.9706 21 27 21C22.0294 21 18 25.0295 18 30C18 34.9705 22.0294 39 27 39ZM36 135C36 139.97 31.9706 144 27 144C22.0294 144 18 139.97 18 135C18 130.03 22.0294 126 27 126C31.9706 126 36 130.03 36 135ZM27 179C31.9706 179 36 174.97 36 170C36 165.03 31.9706 161 27 161C22.0294 161 18 165.03 18 170C18 174.97 22.0294 179 27 179ZM36 205C36 209.97 31.9706 214 27 214C22.0294 214 18 209.97 18 205C18 200.03 22.0294 196 27 196C31.9706 196 36 200.03 36 205ZM27 249C31.9706 249 36 244.97 36 240C36 235.03 31.9706 231 27 231C22.0294 231 18 235.03 18 240C18 244.97 22.0294 249 27 249ZM36 275C36 279.97 31.9706 284 27 284C22.0294 284 18 279.97 18 275C18 270.03 22.0294 266 27 266C31.9706 266 36 270.03 36 275ZM27 319C31.9706 319 36 314.97 36 310C36 305.03 31.9706 301 27 301C22.0294 301 18 305.03 18 310C18 314.97 22.0294 319 27 319ZM36 345C36 349.97 31.9706 354 27 354C22.0294 354 18 349.97 18 345C18 340.03 22.0294 336 27 336C31.9706 336 36 340.03 36 345ZM27 389C31.9706 389 36 384.97 36 380C36 375.03 31.9706 371 27 371C22.0294 371 18 375.03 18 380C18 384.97 22.0294 389 27 389ZM36 415C36 419.97 31.9706 424 27 424C22.0294 424 18 419.97 18 415C18 410.03 22.0294 406 27 406C31.9706 406 36 410.03 36 415ZM27 459C31.9706 459 36 454.97 36 450C36 445.03 31.9706 441 27 441C22.0294 441 18 445.03 18 450C18 454.97 22.0294 459 27 459ZM36 485C36 489.97 31.9706 494 27 494C22.0294 494 18 489.97 18 485C18 480.03 22.0294 476 27 476C31.9706 476 36 480.03 36 485ZM27 529C31.9706 529 36 524.97 36 520C36 515.03 31.9706 511 27 511C22.0294 511 18 515.03 18 520C18 524.97 22.0294 529 27 529ZM36 555C36 559.97 31.9706 564 27 564C22.0294 564 18 559.97 18 555C18 550.03 22.0294 546 27 546C31.9706 546 36 550.03 36 555Z" fill="#8D7C26"/>
</mask>
<g mask="url(#mask0_111_184)">
<rect width="416" height="723" fill="#ECEBE4"/>
<line y1="116" x2="416" y2="116" stroke="#4CA6B8" stroke-opacity="0.5" stroke-width="4"/>
<line y1="151" x2="416" y2="151" stroke="#4CA6B8" stroke-opacity="0.5" stroke-width="4"/>
<line y1="187" x2="416" y2="187" stroke="#4CA6B8" stroke-opacity="0.5" stroke-width="4"/>
<line y1="222" x2="416" y2="222" stroke="#4CA6B8" stroke-opacity="0.5" stroke-width="4"/>
<line y1="258" x2="416" y2="258" stroke="#4CA6B8" stroke-opacity="0.5" stroke-width="4"/>
<line y1="294" x2="416" y2="294" stroke="#4CA6B8" stroke-opacity="0.5" stroke-width="4"/>
<line y1="329" x2="416" y2="329" stroke="#4CA6B8" stroke-opacity="0.5" stroke-width="4"/>
<line y1="364" x2="416" y2="364" stroke="#4CA6B8" stroke-opacity="0.5" stroke-width="4"/>
<line y1="400" x2="416" y2="400" stroke="#4CA6B8" stroke-opacity="0.5" stroke-width="4"/>
<line y1="435" x2="416" y2="435" stroke="#4CA6B8" stroke-opacity="0.5" stroke-width="4"/>
<line y1="471" x2="416" y2="471" stroke="#4CA6B8" stroke-opacity="0.5" stroke-width="4"/>
<line y1="507" x2="416" y2="507" stroke="#4CA6B8" stroke-opacity="0.5" stroke-width="4"/>
<line y1="542" x2="416" y2="542" stroke="#4CA6B8" stroke-opacity="0.5" stroke-width="4"/>
<line y1="578" x2="416" y2="578" stroke="#4CA6B8" stroke-opacity="0.5" stroke-width="4"/>
<line x1="55" y1="8.74228e-08" x2="55" y2="757" stroke="#FF2323" stroke-opacity="0.5" stroke-width="4"/>
</g>
</svg>
